<?xml version="1.0" encoding="UTF-8" standalone="no"?>
<!DOCTYPE svg PUBLIC "-//W3C//DTD SVG 1.1//EN"
 "http://www.w3.org/Graphics/SVG/1.1/DTD/svg11.dtd">
<!-- Generated by graphviz version 2.47.0 (20210316.0004)
 -->
<!-- Title: dependencies Pages: 1 -->
<svg width="1108pt" height="284pt"
 viewBox="0.00 0.00 1108.00 284.00" xmlns="http://www.w3.org/2000/svg" xmlns:xlink="http://www.w3.org/1999/xlink">
<g id="graph0" class="graph" transform="scale(1 1) rotate(0) translate(4 280)">
<title>dependencies</title>
<polygon fill="white" stroke="transparent" points="-4,4 -4,-280 1104,-280 1104,4 -4,4"/>
<text text-anchor="start" x="529.01" y="-42.4" font-family="Times-12" font-weight="bold" font-size="14.00">Legend</text>
<polygon fill="#ffffb3" stroke="transparent" points="316,-10 316,-30 336,-30 336,-10 316,-10"/>
<text text-anchor="start" x="339.63" y="-15.4" font-family="Times-12" font-size="14.00"> &#160;Declarations</text>
<polygon fill="#8dd3c7" stroke="transparent" points="429,-10 429,-30 449,-30 449,-10 429,-10"/>
<text text-anchor="start" x="452.73" y="-15.4" font-family="Times-12" font-size="14.00"> &#160;Module</text>
<polygon fill="#80b1d3" stroke="transparent" points="515,-10 515,-30 535,-30 535,-10 515,-10"/>
<text text-anchor="start" x="538.78" y="-15.4" font-family="Times-12" font-size="14.00"> &#160;Bootstrap</text>
<polygon fill="#fdb462" stroke="transparent" points="612,-10 612,-30 632,-30 632,-10 612,-10"/>
<text text-anchor="start" x="635.67" y="-15.4" font-family="Times-12" font-size="14.00"> &#160;Providers</text>
<polygon fill="#fb8072" stroke="transparent" points="708,-10 708,-30 728,-30 728,-10 708,-10"/>
<text text-anchor="start" x="731.73" y="-15.4" font-family="Times-12" font-size="14.00"> &#160;Exports</text>
<g id="clust1" class="cluster">
<title>cluster_AppModule</title>
<polygon fill="none" stroke="black" stroke-dasharray="1,5" points="8,-70 8,-268 1092,-268 1092,-70 8,-70"/>
</g>
<g id="clust2" class="cluster">
<title>cluster_AppModule_declarations</title>
<polygon fill="none" stroke="black" points="386,-78 386,-130 1084,-130 1084,-78 386,-78"/>
</g>
<g id="clust8" class="cluster">
<title>cluster_AppModule_imports</title>
<polygon fill="none" stroke="black" points="234,-78 234,-130 378,-130 378,-78 234,-78"/>
</g>
<g id="clust10" class="cluster">
<title>cluster_AppModule_bootstrap</title>
<polygon fill="none" stroke="black" points="537,-208 537,-260 661,-260 661,-208 537,-208"/>
</g>
<g id="clust11" class="cluster">
<title>cluster_AppModule_providers</title>
<polygon fill="none" stroke="black" points="16,-78 16,-130 226,-130 226,-78 16,-78"/>
</g>
<!-- AppComponent -->
<g id="node1" class="node">
<title>AppComponent</title>
<polygon fill="#ffffb3" stroke="black" points="1075.94,-122 970.06,-122 970.06,-86 1075.94,-86 1075.94,-122"/>
<text text-anchor="middle" x="1023" y="-99.8" font-family="Times,serif" font-size="14.00">AppComponent</text>
</g>
<!-- AppModule -->
<g id="node6" class="node">
<title>AppModule</title>
<polygon fill="#8dd3c7" stroke="black" points="640.66,-187 637.66,-191 616.66,-191 613.66,-187 557.34,-187 557.34,-151 640.66,-151 640.66,-187"/>
<text text-anchor="middle" x="599" y="-164.8" font-family="Times,serif" font-size="14.00">AppModule</text>
</g>
<!-- AppComponent&#45;&gt;AppModule -->
<g id="edge1" class="edge">
<title>AppComponent&#45;&gt;AppModule</title>
<path fill="none" stroke="black" d="M1023,-122.29C1023,-144.21 1023,-178 1023,-178 1023,-178 650.82,-178 650.82,-178"/>
<polygon fill="black" stroke="black" points="650.82,-174.5 640.82,-178 650.82,-181.5 650.82,-174.5"/>
</g>
<!-- MainboxComponent -->
<g id="node2" class="node">
<title>MainboxComponent</title>
<polygon fill="#ffffb3" stroke="black" points="951.88,-122 820.12,-122 820.12,-86 951.88,-86 951.88,-122"/>
<text text-anchor="middle" x="886" y="-99.8" font-family="Times,serif" font-size="14.00">MainboxComponent</text>
</g>
<!-- MainboxComponent&#45;&gt;AppModule -->
<g id="edge2" class="edge">
<title>MainboxComponent&#45;&gt;AppModule</title>
<path fill="none" stroke="black" d="M886,-122.11C886,-141.34 886,-169 886,-169 886,-169 650.73,-169 650.73,-169"/>
<polygon fill="black" stroke="black" points="650.73,-165.5 640.73,-169 650.73,-172.5 650.73,-165.5"/>
</g>
<!-- NavbarComponent -->
<g id="node3" class="node">
<title>NavbarComponent</title>
<polygon fill="#ffffb3" stroke="black" points="802.03,-122 679.97,-122 679.97,-86 802.03,-86 802.03,-122"/>
<text text-anchor="middle" x="741" y="-99.8" font-family="Times,serif" font-size="14.00">NavbarComponent</text>
</g>
<!-- NavbarComponent&#45;&gt;AppModule -->
<g id="edge3" class="edge">
<title>NavbarComponent&#45;&gt;AppModule</title>
<path fill="none" stroke="black" d="M741,-122.03C741,-138.4 741,-160 741,-160 741,-160 650.84,-160 650.84,-160"/>
<polygon fill="black" stroke="black" points="650.84,-156.5 640.84,-160 650.84,-163.5 650.84,-156.5"/>
</g>
<!-- SettingsComponent -->
<g id="node4" class="node">
<title>SettingsComponent</title>
<polygon fill="#ffffb3" stroke="black" points="662.45,-122 535.55,-122 535.55,-86 662.45,-86 662.45,-122"/>
<text text-anchor="middle" x="599" y="-99.8" font-family="Times,serif" font-size="14.00">SettingsComponent</text>
</g>
<!-- SettingsComponent&#45;&gt;AppModule -->
<g id="edge4" class="edge">
<title>SettingsComponent&#45;&gt;AppModule</title>
<path fill="none" stroke="black" d="M599,-122.11C599,-122.11 599,-140.99 599,-140.99"/>
<polygon fill="black" stroke="black" points="595.5,-140.99 599,-150.99 602.5,-140.99 595.5,-140.99"/>
</g>
<!-- SidebarComponent -->
<g id="node5" class="node">
<title>SidebarComponent</title>
<polygon fill="#ffffb3" stroke="black" points="518.1,-122 393.9,-122 393.9,-86 518.1,-86 518.1,-122"/>
<text text-anchor="middle" x="456" y="-99.8" font-family="Times,serif" font-size="14.00">SidebarComponent</text>
</g>
<!-- SidebarComponent&#45;&gt;AppModule -->
<g id="edge5" class="edge">
<title>SidebarComponent&#45;&gt;AppModule</title>
<path fill="none" stroke="black" d="M456,-122.03C456,-138.4 456,-160 456,-160 456,-160 547.25,-160 547.25,-160"/>
<polygon fill="black" stroke="black" points="547.25,-163.5 557.25,-160 547.25,-156.5 547.25,-163.5"/>
</g>
<!-- AppComponent  -->
<g id="node8" class="node">
<title>AppComponent </title>
<polygon fill="#80b1d3" stroke="black" points="653.44,-252 544.56,-252 544.56,-216 653.44,-216 653.44,-252"/>
<text text-anchor="middle" x="599" y="-229.8" font-family="Times,serif" font-size="14.00">AppComponent </text>
</g>
<!-- AppModule&#45;&gt;AppComponent  -->
<g id="edge7" class="edge">
<title>AppModule&#45;&gt;AppComponent </title>
<path fill="none" stroke="black" stroke-dasharray="1,5" d="M599,-187.11C599,-187.11 599,-205.99 599,-205.99"/>
<polygon fill="black" stroke="black" points="595.5,-205.99 599,-215.99 602.5,-205.99 595.5,-205.99"/>
</g>
<!-- AppRoutingModule -->
<g id="node7" class="node">
<title>AppRoutingModule</title>
<polygon fill="#8dd3c7" stroke="black" points="370.27,-122 367.27,-126 346.27,-126 343.27,-122 241.73,-122 241.73,-86 370.27,-86 370.27,-122"/>
<text text-anchor="middle" x="306" y="-99.8" font-family="Times,serif" font-size="14.00">AppRoutingModule</text>
</g>
<!-- AppRoutingModule&#45;&gt;AppModule -->
<g id="edge6" class="edge">
<title>AppRoutingModule&#45;&gt;AppModule</title>
<path fill="none" stroke="black" d="M306,-122.11C306,-141.34 306,-169 306,-169 306,-169 547.33,-169 547.33,-169"/>
<polygon fill="black" stroke="black" points="547.33,-172.5 557.33,-169 547.33,-165.5 547.33,-172.5"/>
</g>
<!-- XmlDataFetchService -->
<g id="node9" class="node">
<title>XmlDataFetchService</title>
<ellipse fill="#fdb462" stroke="black" cx="121" cy="-104" rx="96.68" ry="18"/>
<text text-anchor="middle" x="121" y="-99.8" font-family="Times,serif" font-size="14.00">XmlDataFetchService</text>
</g>
<!-- XmlDataFetchService&#45;&gt;AppModule -->
<g id="edge8" class="edge">
<title>XmlDataFetchService&#45;&gt;AppModule</title>
<path fill="none" stroke="black" d="M121,-122.29C121,-144.21 121,-178 121,-178 121,-178 547,-178 547,-178"/>
<polygon fill="black" stroke="black" points="547,-181.5 557,-178 547,-174.5 547,-181.5"/>
</g>
</g>
</svg>
